<svg id="Layer_1" data-name="Layer 1" xmlns="http://www.w3.org/2000/svg" viewBox="0 0 337.59 441.75"><defs><style>.cls-1{fill:#4b8cc5;}</style></defs><path d="M98.57,177.79l6.49,36.08A90.49,90.49,0,0,0,81.52,234l-34.65-12.5L25.72,280.15l34.64,12.5A87.51,87.51,0,0,0,65.81,323L37.69,346.76,78,394.41l28.12-23.78a90.37,90.37,0,0,0,29.06,10.63l6.49,36.09,61.42-11-6.48-36.09a90.45,90.45,0,0,0,23.54-20.08l34.64,12.5,21.16-58.7-34.65-12.49A91,91,0,0,0,239.88,276a90.07,90.07,0,0,0-4.07-14.92l28.13-23.78-40.27-47.66-28.13,23.78a90.61,90.61,0,0,0-29.06-10.63L160,166.75Zm42.86,62.05A53,53,0,1,1,98.6,301.43,53,53,0,0,1,141.43,239.84Z"/><polygon class="cls-1" points="229.26 167.99 212.35 149.88 224.13 117.84 245.85 144.17 235.9 166.86 250.47 173.25 257.41 157.9 266.25 168.68 278.65 158.38 269.65 147.62 286.06 143.8 282.55 128.19 258.26 133.87 236.4 107.73 270.06 101.99 284.74 122.01 297.79 112.45 287.81 98.96 301.57 96.61 298.88 80.86 285.12 83.21 290.04 67.01 274.56 62.31 267.38 86.23 233.71 91.97 245.65 59.9 270.45 57.21 268.59 41.31 251.84 43.15 256.77 30.02 241.64 24.41 236.88 37.51 225.25 25.32 213.62 36.18 230.53 54.29 218.75 86.33 197.03 60 206.98 37.31 192.41 30.92 185.47 46.27 176.64 35.49 164.23 45.8 173.23 56.55 156.82 60.37 160.33 75.99 184.62 70.31 206.51 96.61 172.85 102.35 158.14 82.16 145.1 91.72 155.1 105.38 141.34 107.72 144.03 123.48 157.79 121.13 152.84 137.16 168.32 141.86 175.53 118.11 209.2 112.37 197.23 144.27 172.43 146.96 174.29 162.86 191.04 161.03 186.12 174.16 201.24 179.77 206 166.67 217.63 178.85 229.26 167.99"/></svg>